<svg id="visual" viewBox="0 0 960 540" width="960" height="540" xmlns="http://www.w3.org/2000/svg" xmlns:xlink="http://www.w3.org/1999/xlink" version="1.1"><rect x="0" y="0" width="960" height="540" fill="#001220"></rect><defs><linearGradient id="grad1_0" x1="43.8%" y1="0%" x2="100%" y2="100%"><stop offset="14.444444444444446%" stop-color="#001220" stop-opacity="1"></stop><stop offset="85.55555555555554%" stop-color="#001220" stop-opacity="1"></stop></linearGradient></defs><defs><linearGradient id="grad2_0" x1="0%" y1="0%" x2="56.3%" y2="100%"><stop offset="14.444444444444446%" stop-color="#001220" stop-opacity="1"></stop><stop offset="85.55555555555554%" stop-color="#001220" stop-opacity="1"></stop></linearGradient></defs><g transform="translate(960, 0)"><path d="M0 189C-25.3 171 -50.6 152.9 -80.5 139.4C-110.4 125.9 -144.8 117 -163.7 94.5C-182.5 72 -185.8 36 -189 0L0 0Z" fill="#25273c"></path></g><g transform="translate(0, 540)"><path d="M0 -189C30.9 -180.7 61.8 -172.3 91 -157.6C120.2 -142.9 147.6 -121.8 163.7 -94.5C179.7 -67.2 184.4 -33.6 189 0L0 0Z" fill="#25273c"></path></g></svg>