<svg id="visual" viewBox="0 0 960 540" width="960" height="540" xmlns="http://www.w3.org/2000/svg" xmlns:xlink="http://www.w3.org/1999/xlink" version="1.1"><g stroke-width="1" stroke-linejoin="bevel"><path d="M457.7 231L545.3 160L455.7 185Z" fill="#081a28" stroke="#081a28"></path><path d="M457.7 231L570.3 231L545.3 160Z" fill="#1d4e6b" stroke="#1d4e6b"></path><path d="M639 99L555.3 87L545.3 160Z" fill="#0c2435" stroke="#0c2435"></path><path d="M545.3 160L555.3 87L455.7 185Z" fill="#081a28" stroke="#081a28"></path><path d="M555.3 87L402.7 119L455.7 185Z" fill="#277297" stroke="#277297"></path><path d="M455.7 185L326 251L457.7 231Z" fill="#277297" stroke="#277297"></path><path d="M531.3 388L633 286L570.3 231Z" fill="#277297" stroke="#277297"></path><path d="M570.3 231L668 208L545.3 160Z" fill="#1d4e6b" stroke="#1d4e6b"></path><path d="M633 286L668 208L570.3 231Z" fill="#246688" stroke="#246688"></path><path d="M668 208L639 99L545.3 160Z" fill="#19435d" stroke="#19435d"></path><path d="M407.7 375L531.3 388L457.7 231Z" fill="#246688" stroke="#246688"></path><path d="M457.7 231L531.3 388L570.3 231Z" fill="#15384f" stroke="#15384f"></path><path d="M310 219L326 251L455.7 185Z" fill="#081a28" stroke="#081a28"></path><path d="M326 251L407.7 375L457.7 231Z" fill="#1d4e6b" stroke="#1d4e6b"></path><path d="M402.7 119L310 219L455.7 185Z" fill="#1d4e6b" stroke="#1d4e6b"></path><path d="M633 286L710.7 214L668 208Z" fill="#1d4e6b" stroke="#1d4e6b"></path><path d="M668 208L719.7 71L639 99Z" fill="#081a28" stroke="#081a28"></path><path d="M735.7 280L710.7 214L633 286Z" fill="#297ea6" stroke="#297ea6"></path><path d="M531.3 388L667 337L633 286Z" fill="#1d4e6b" stroke="#1d4e6b"></path><path d="M615 0L517.3 0L555.3 87Z" fill="#205a7a" stroke="#205a7a"></path><path d="M555.3 87L429.7 0L402.7 119Z" fill="#297ea6" stroke="#297ea6"></path><path d="M517.3 0L429.7 0L555.3 87Z" fill="#19435d" stroke="#19435d"></path><path d="M402.7 119L298 55L310 219Z" fill="#19435d" stroke="#19435d"></path><path d="M450.7 468L561.3 426L531.3 388Z" fill="#112e42" stroke="#112e42"></path><path d="M531.3 388L601 426L667 337Z" fill="#297ea6" stroke="#297ea6"></path><path d="M719.7 71L615 0L639 99Z" fill="#246688" stroke="#246688"></path><path d="M639 99L615 0L555.3 87Z" fill="#081a28" stroke="#081a28"></path><path d="M214.3 215L307 327L326 251Z" fill="#19435d" stroke="#19435d"></path><path d="M326 251L307 327L407.7 375Z" fill="#297ea6" stroke="#297ea6"></path><path d="M729.7 372L735.7 280L667 337Z" fill="#297ea6" stroke="#297ea6"></path><path d="M667 337L735.7 280L633 286Z" fill="#1d4e6b" stroke="#1d4e6b"></path><path d="M561.3 426L601 426L531.3 388Z" fill="#081a28" stroke="#081a28"></path><path d="M710.7 214L719.7 71L668 208Z" fill="#205a7a" stroke="#205a7a"></path><path d="M822.3 95L719.7 71L710.7 214Z" fill="#112e42" stroke="#112e42"></path><path d="M346 0L298 55L402.7 119Z" fill="#112e42" stroke="#112e42"></path><path d="M310 219L214.3 215L326 251Z" fill="#112e42" stroke="#112e42"></path><path d="M429.7 0L346 0L402.7 119Z" fill="#15384f" stroke="#15384f"></path><path d="M297 457L450.7 468L407.7 375Z" fill="#205a7a" stroke="#205a7a"></path><path d="M407.7 375L450.7 468L531.3 388Z" fill="#1d4e6b" stroke="#1d4e6b"></path><path d="M561.3 426L515.3 540L601 426Z" fill="#205a7a" stroke="#205a7a"></path><path d="M601 426L729.7 372L667 337Z" fill="#00101c" stroke="#00101c"></path><path d="M211.3 93L214.3 215L310 219Z" fill="#0c2435" stroke="#0c2435"></path><path d="M729.7 372L816.3 268L735.7 280Z" fill="#0c2435" stroke="#0c2435"></path><path d="M735.7 280L816.3 268L710.7 214Z" fill="#246688" stroke="#246688"></path><path d="M197.3 0L211.3 93L298 55Z" fill="#1d4e6b" stroke="#1d4e6b"></path><path d="M298 55L211.3 93L310 219Z" fill="#00101c" stroke="#00101c"></path><path d="M822.3 95L766.7 0L719.7 71Z" fill="#00101c" stroke="#00101c"></path><path d="M719.7 71L766.7 0L615 0Z" fill="#081a28" stroke="#081a28"></path><path d="M307 327L297 457L407.7 375Z" fill="#19435d" stroke="#19435d"></path><path d="M195.3 325L297 457L307 327Z" fill="#081a28" stroke="#081a28"></path><path d="M870.3 153L822.3 95L710.7 214Z" fill="#19435d" stroke="#19435d"></path><path d="M450.7 468L515.3 540L561.3 426Z" fill="#205a7a" stroke="#205a7a"></path><path d="M601 426L716.7 483L729.7 372Z" fill="#246688" stroke="#246688"></path><path d="M405.7 540L515.3 540L450.7 468Z" fill="#081a28" stroke="#081a28"></path><path d="M183.3 299L307 327L214.3 215Z" fill="#205a7a" stroke="#205a7a"></path><path d="M183.3 299L195.3 325L307 327Z" fill="#15384f" stroke="#15384f"></path><path d="M128.7 203L183.3 299L214.3 215Z" fill="#00101c" stroke="#00101c"></path><path d="M653 540L716.7 483L601 426Z" fill="#0c2435" stroke="#0c2435"></path><path d="M729.7 372L817.3 418L816.3 268Z" fill="#00101c" stroke="#00101c"></path><path d="M297 457L405.7 540L450.7 468Z" fill="#081a28" stroke="#081a28"></path><path d="M515.3 540L653 540L601 426Z" fill="#00101c" stroke="#00101c"></path><path d="M960 142L870.3 153L960 302Z" fill="#205a7a" stroke="#205a7a"></path><path d="M816.3 268L870.3 153L710.7 214Z" fill="#0c2435" stroke="#0c2435"></path><path d="M822.3 95L860.3 0L766.7 0Z" fill="#19435d" stroke="#19435d"></path><path d="M871.3 540L817.3 418L716.7 483Z" fill="#205a7a" stroke="#205a7a"></path><path d="M716.7 483L817.3 418L729.7 372Z" fill="#1d4e6b" stroke="#1d4e6b"></path><path d="M346 0L197.3 0L298 55Z" fill="#15384f" stroke="#15384f"></path><path d="M211.3 93L128.7 203L214.3 215Z" fill="#1d4e6b" stroke="#1d4e6b"></path><path d="M78.7 63L128.7 203L211.3 93Z" fill="#297ea6" stroke="#297ea6"></path><path d="M113.7 427L174.3 438L195.3 325Z" fill="#1d4e6b" stroke="#1d4e6b"></path><path d="M194.3 540L296 540L297 457Z" fill="#1d4e6b" stroke="#1d4e6b"></path><path d="M297 457L296 540L405.7 540Z" fill="#15384f" stroke="#15384f"></path><path d="M174.3 438L297 457L195.3 325Z" fill="#246688" stroke="#246688"></path><path d="M653 540L724.7 540L716.7 483Z" fill="#081a28" stroke="#081a28"></path><path d="M960 421L877.3 372L817.3 418Z" fill="#205a7a" stroke="#205a7a"></path><path d="M817.3 418L877.3 372L816.3 268Z" fill="#277297" stroke="#277297"></path><path d="M960 54L860.3 0L822.3 95Z" fill="#277297" stroke="#277297"></path><path d="M67.7 343L195.3 325L183.3 299Z" fill="#19435d" stroke="#19435d"></path><path d="M197.3 0L129.7 0L211.3 93Z" fill="#00101c" stroke="#00101c"></path><path d="M128.7 203L67.7 290L183.3 299Z" fill="#246688" stroke="#246688"></path><path d="M0 150L67.7 290L128.7 203Z" fill="#19435d" stroke="#19435d"></path><path d="M67.7 343L113.7 427L195.3 325Z" fill="#297ea6" stroke="#297ea6"></path><path d="M174.3 438L194.3 540L297 457Z" fill="#205a7a" stroke="#205a7a"></path><path d="M129.7 0L78.7 63L211.3 93Z" fill="#00101c" stroke="#00101c"></path><path d="M960 302L870.3 153L816.3 268Z" fill="#15384f" stroke="#15384f"></path><path d="M870.3 153L960 54L822.3 95Z" fill="#297ea6" stroke="#297ea6"></path><path d="M139.7 540L194.3 540L174.3 438Z" fill="#246688" stroke="#246688"></path><path d="M877.3 372L960 302L816.3 268Z" fill="#1d4e6b" stroke="#1d4e6b"></path><path d="M960 329L960 302L877.3 372Z" fill="#112e42" stroke="#112e42"></path><path d="M67.7 290L67.7 343L183.3 299Z" fill="#246688" stroke="#246688"></path><path d="M960 421L960 329L877.3 372Z" fill="#0c2435" stroke="#0c2435"></path><path d="M960 142L960 54L870.3 153Z" fill="#15384f" stroke="#15384f"></path><path d="M724.7 540L871.3 540L716.7 483Z" fill="#112e42" stroke="#112e42"></path><path d="M960 54L960 0L860.3 0Z" fill="#081a28" stroke="#081a28"></path><path d="M113.7 427L139.7 540L174.3 438Z" fill="#246688" stroke="#246688"></path><path d="M0 540L139.7 540L113.7 427Z" fill="#246688" stroke="#246688"></path><path d="M871.3 540L960 421L817.3 418Z" fill="#0c2435" stroke="#0c2435"></path><path d="M0 59L0 150L78.7 63Z" fill="#246688" stroke="#246688"></path><path d="M78.7 63L0 150L128.7 203Z" fill="#15384f" stroke="#15384f"></path><path d="M67.7 290L0 326L67.7 343Z" fill="#246688" stroke="#246688"></path><path d="M0 150L0 286L67.7 290Z" fill="#277297" stroke="#277297"></path><path d="M67.7 343L0 435L113.7 427Z" fill="#19435d" stroke="#19435d"></path><path d="M0 286L0 326L67.7 290Z" fill="#205a7a" stroke="#205a7a"></path><path d="M0 0L0 59L78.7 63Z" fill="#297ea6" stroke="#297ea6"></path><path d="M129.7 0L0 0L78.7 63Z" fill="#081a28" stroke="#081a28"></path><path d="M0 326L0 435L67.7 343Z" fill="#297ea6" stroke="#297ea6"></path><path d="M871.3 540L960 540L960 421Z" fill="#297ea6" stroke="#297ea6"></path><path d="M0 435L0 540L113.7 427Z" fill="#0c2435" stroke="#0c2435"></path></g></svg>