<svg id="visual" viewBox="0 0 960 540" width="960" height="540" xmlns="http://www.w3.org/2000/svg" xmlns:xlink="http://www.w3.org/1999/xlink" version="1.1"><rect x="0" y="0" width="960" height="540" fill="#001220"></rect><defs><linearGradient id="grad1_0" x1="43.8%" y1="0%" x2="100%" y2="100%"><stop offset="14.444444444444446%" stop-color="#001220" stop-opacity="1"></stop><stop offset="85.55555555555554%" stop-color="#001220" stop-opacity="1"></stop></linearGradient></defs><defs><linearGradient id="grad2_0" x1="0%" y1="0%" x2="56.3%" y2="100%"><stop offset="14.444444444444446%" stop-color="#001220" stop-opacity="1"></stop><stop offset="85.55555555555554%" stop-color="#001220" stop-opacity="1"></stop></linearGradient></defs><g transform="translate(960, 0)"><path d="M0 216C-18.9 190.8 -37.8 165.6 -65.8 158.9C-93.9 152.2 -131.1 163.9 -152.7 152.7C-174.4 141.5 -180.5 107.4 -188.5 78.1C-196.4 48.8 -206.2 24.4 -216 0L0 0Z" fill="#FBAE3C"></path></g><g transform="translate(0, 540)"><path d="M0 -216C27.9 -213 55.7 -210 82.7 -199.6C109.6 -189.2 135.6 -171.4 147.8 -147.8C159.9 -124.2 158.2 -94.9 167.2 -69.3C176.3 -43.7 196.1 -21.8 216 0L0 0Z" fill="#FBAE3C"></path></g></svg>